<svg width="800" height="577" viewBox="0 0 800 577" fill="none" xmlns="http://www.w3.org/2000/svg">
<path fill-rule="evenodd" clip-rule="evenodd" d="M392.924 162.651C381.664 164.299 362.488 169.789 357.042 172.923C333.496 186.475 323.016 219.761 333.31 248.297L334.846 252.555L333.114 254.637C332.164 255.783 331.246 256.741 331.076 256.765C330.008 256.919 318.642 247.385 310.064 239.141C265.362 196.179 235.628 182.639 216.22 196.407C204.728 204.559 203.256 213.651 208.328 245.117C209.556 252.733 210.91 261.127 211.334 263.771C211.904 267.301 212.482 268.935 213.514 269.925L214.918 271.271L214.564 269.733C213.104 263.377 207.842 228.145 207.58 222.963C206.264 196.887 227.874 185.393 253.702 198.431C266.408 204.845 290.556 223.375 308 240.099C314.43 246.263 322.082 253.001 325.002 255.071L330.312 258.835L330.598 263.207C331.004 269.407 339.386 285.733 342.164 285.733C343.802 285.733 343.774 283.953 342.072 280.213C340.06 275.789 338.276 270.059 337.2 264.565C336.746 262.247 335.958 260.405 335.014 259.461C333.236 257.683 333.202 257.305 334.696 255.953C335.812 254.943 336.008 255.219 340.184 263.705C347.126 277.803 349.012 279.275 353.846 274.349C355.34 272.825 356.194 271.579 355.742 271.579C355.124 271.579 354.996 270.795 355.226 268.407C355.496 265.587 355.444 265.395 354.752 266.689C354.002 268.089 353.904 267.989 352.052 263.903C348.732 256.581 344.496 252.513 340.166 252.493C337.238 252.479 336.874 252.063 335.048 246.647C324.496 215.319 338.312 181.311 365.538 171.603C398.104 159.989 425.874 162.881 443.79 179.753C445.192 181.073 446.332 181.695 446.808 181.401C447.292 181.101 447.42 181.179 447.152 181.613C446.918 181.989 448.248 184.177 450.104 186.477C460.514 199.371 464.632 216.345 461.618 233.939C460.004 243.353 459.942 243.447 457.81 239.713C456.762 237.881 454.958 235.927 453.288 234.823C451.76 233.811 449.438 231.627 448.126 229.973C444.508 225.405 438.604 220.207 435.282 218.665C423.58 213.231 422.336 212.455 417.156 207.343C412.442 202.695 411.422 201.193 409.436 195.987C408.934 194.669 408.552 195.071 404.906 200.751L400.924 206.955L400.558 202.805C400.178 198.495 399.202 194.401 398.172 192.811C397.69 192.061 396.574 192.877 392.282 197.117C384.38 204.925 381.818 208.109 382.726 208.999C383.306 209.569 383.75 209.389 384.72 208.195C385.404 207.349 388.44 204.101 391.466 200.979L396.966 195.303L397.614 196.979C397.98 197.927 398.158 201.335 398.022 204.811C397.774 211.129 397.76 211.169 393.864 217.985C391.298 222.475 394.158 221.773 396.998 217.217C398.088 215.471 401.044 210.787 403.566 206.811L408.154 199.581L409.956 202.421C414.128 209.003 421.328 214.687 430.848 218.917C436.58 221.465 437.95 222.389 441.922 226.383C447.634 232.129 447.622 232.025 442.638 231.981C427.906 231.853 421.804 243.583 430.04 256.195C430.592 257.041 431.058 257.871 431.072 258.041C431.088 258.211 432.272 260.459 433.704 263.039C436.942 268.875 437.478 271.175 435.984 272.827C434.38 274.601 433.846 274.327 433.842 271.733C433.828 262.281 427.378 258.163 420.716 263.353C419.138 264.583 417.846 265.793 417.846 266.039C417.846 267.149 413.03 269.733 410.962 269.733C407.95 269.733 406.8 273.457 409.1 275.757C410.288 276.943 426.652 277.347 430.226 276.277L431.834 275.795L432.276 289.841C432.528 297.869 433.354 309.261 434.204 316.431C436.33 334.359 436.67 333.261 427.992 336.527C395.31 348.829 355.076 318.657 355.076 281.847C355.076 274.187 355.03 273.893 353.97 274.851C352.126 276.521 352.504 291.047 354.542 296.811L355.086 298.349L353.698 296.749C352.932 295.869 350.508 292.905 348.308 290.163C346.108 287.421 344.092 285.163 343.826 285.147C342.404 285.061 342.95 287.735 345.734 294.499C347.438 298.639 348.72 302.141 348.58 302.281C348.442 302.419 345.032 300.933 341.002 298.977C334.44 295.791 332.308 295.245 332.308 296.749C332.308 297.015 336.176 299.085 340.904 301.351C345.632 303.617 349.906 306.051 350.404 306.759C350.95 307.541 351.684 307.903 352.268 307.679C353.31 307.281 353.366 307.475 349.3 297.475C347.176 292.251 347.486 292.267 351.32 297.569C359.006 308.205 361.338 318.017 360.002 334.095C357.446 364.841 351.128 370.403 335.026 356.075C324.734 346.917 318.786 342.055 319.67 343.521C320.022 344.107 319.962 344.243 319.48 343.945C319.088 343.705 318.746 343.177 318.718 342.773C318.69 342.371 316.96 340.645 314.872 338.937C308.958 334.101 301.304 322.825 297.972 314.041C296.518 310.213 293.096 299.755 291.022 292.811C289.91 289.087 288.356 284.545 287.57 282.715C286.118 279.343 286.104 278.297 287.524 279.393C288.434 280.095 296.336 283.243 313.23 289.633C319.83 292.129 326.662 294.751 328.41 295.461C331.15 296.573 331.692 296.629 332.324 295.869C332.918 295.153 332.78 294.877 331.606 294.421C330.808 294.111 328.63 293.245 326.77 292.495C324.908 291.745 316.6 288.569 308.308 285.437C281.798 275.427 283.62 277.107 277.816 257.321C273.94 244.113 269.24 235.781 262.876 230.839C258.272 227.263 257.324 227.793 259.518 232.719C260.37 234.631 262.71 241.041 264.718 246.963C270.086 262.799 272.276 266.979 278.486 273.231C284.396 279.181 285.068 280.593 290.446 298.349C296.922 319.731 304.082 332.959 313.164 340.317C315.17 341.943 317.494 343.825 318.328 344.503C321.924 347.417 330.53 354.833 335.076 358.931C340.906 364.187 343.654 365.733 347.16 365.733H349.754L348.452 367.117L347.152 368.503L351.884 368.551C360.67 368.639 369.388 372.047 385.292 381.607C412.472 397.947 432.954 396.803 440.926 378.503C442.504 374.881 442.854 374.497 445.168 373.861C449.126 372.771 457.234 367.865 465.752 361.405C470.048 358.147 477.852 352.619 483.09 349.123C498.858 338.601 503.91 334.595 512.858 325.527L521.41 316.861L520.97 319.787C516.9 346.933 522.408 383.383 534.204 407.367C542.642 424.519 556.176 428.399 567.044 416.783C571.584 411.927 573.634 407.113 577.504 392.195C580.508 380.615 581.108 378.657 581.654 378.657C583.424 378.657 583.604 395.411 581.914 402.849C581.314 405.495 580.98 408.071 581.172 408.573C581.366 409.077 581.296 409.349 581.018 409.177C580.74 409.005 579.606 411.191 578.498 414.037C574.736 423.707 570.066 430.379 556.232 445.833C532.7 472.119 527.63 481.091 524.56 501.877C523.452 509.369 523.622 531.067 524.852 539.271C525.182 541.471 525.644 546.357 525.878 550.129L526.304 556.987L524.294 557.429C522.054 557.921 516.924 560.831 516.924 561.611C516.924 561.887 517.242 561.915 517.634 561.675C518.078 561.401 518.176 561.505 517.898 561.955C517.654 562.353 517.19 562.513 516.866 562.313C516.542 562.113 515.704 563.247 515.004 564.833C513.816 567.515 513.784 568.375 514.734 571.887C514.87 572.395 515.008 572.949 515.04 573.117C515.07 573.287 515.386 573.011 515.742 572.503C516.248 571.779 516.304 571.881 515.998 572.963C515.784 573.725 515.858 574.349 516.164 574.349C517.246 574.349 517.486 573.553 516.788 572.267C515.946 570.717 515.084 565.665 515.73 566.063C516.324 566.431 517.028 564.553 516.572 563.817C516.376 563.499 516.444 563.317 516.724 563.409C517.002 563.499 518.21 562.827 519.406 561.913C520.602 560.999 522.784 560.059 524.256 559.823L526.934 559.395L526.658 564.653C526.282 571.817 522.942 576.253 519.366 574.339C517.77 573.485 516.596 574.135 517.584 575.327C518.47 576.395 523.366 576.545 522.71 575.485C522.428 575.029 522.542 574.941 523.028 575.241C525.502 576.771 528.854 570.417 528.892 564.123L528.924 559.129L538.77 558.807C544.184 558.629 558.17 558.441 569.846 558.391C581.524 558.341 612.676 558.041 639.076 557.725C665.476 557.409 712.484 556.959 743.538 556.725C797.746 556.317 800 556.255 800 555.171C800 554.135 799.366 554.041 792.462 554.043C783.474 554.047 693.418 554.989 612 555.929C548.964 556.657 529.286 556.763 528.898 556.375C527.732 555.209 525.358 521.859 525.774 512.497C526.908 487.035 533.34 473.769 556.954 448.195C574.816 428.849 582.024 416.329 584.586 400.195C586.054 390.951 584.66 374.637 582.338 373.889C580.296 373.231 572.056 399.677 573.762 401.417C574.286 401.949 574.256 402.079 573.648 401.931C573.152 401.811 572.308 403.059 571.492 405.117C563.398 425.543 546.45 426.741 536.664 407.579C527.592 389.819 521.864 364.253 521.746 340.999C521.706 332.895 522.12 330.259 522.682 335.061C526.254 365.631 530.104 381.469 537.856 397.511C543.582 409.361 547.73 408.837 562.128 394.443C587.322 369.259 603.73 342.705 622.46 296.811C627.852 283.599 631.668 274.839 636.002 265.733C641.942 253.247 643.312 249.397 642.21 248.295C641.414 247.499 641.238 247.491 641.014 248.239C639.912 251.925 637.99 256.515 634.33 264.195C629.78 273.743 625.402 283.881 616.924 304.503C601.68 341.585 584.168 369.133 560.928 392.589C549.488 404.137 547.312 405.393 543.69 402.545C537.282 397.505 527.016 362.013 524.676 336.811C523.822 327.627 523.494 325.167 523.152 325.377C522.942 325.505 522.782 323.113 522.798 320.061L522.828 314.513L525.47 311.353C538.648 295.605 549.234 286.159 554.898 285.101C568.564 282.545 578.456 276.607 580.27 269.873C581.13 266.677 580.512 263.375 579.148 263.877C575.306 265.289 554.696 279.257 551.002 282.951C550.02 283.933 547.1 284.283 530.154 285.445C502.824 287.321 488.384 291.449 459.178 305.737C454.174 308.185 454.454 308.893 456.966 300.179C458.136 296.127 459.158 291.287 459.238 289.425C459.318 287.563 459.622 285.867 459.914 285.655C460.204 285.443 460.59 281.123 460.768 276.053L461.096 266.837L463.932 265.879C481.466 259.961 497.37 254.031 518.462 245.541C587.266 217.851 620.036 210.465 633.444 219.627C636.112 221.449 638.488 220.751 636 218.875C627.072 212.143 617.79 211.659 596.878 216.835C568.816 223.781 551.978 229.547 509.846 246.639C500.03 250.621 486.184 255.883 479.076 258.335C471.97 260.785 464.492 263.451 462.462 264.261L458.77 265.733L458.382 268.811C458.164 270.539 458.102 269.463 458.242 266.349C458.546 259.545 458.594 259.243 461.716 244.811C466.922 220.727 464.864 204.307 454.736 189.167C441.876 169.941 416.754 159.163 392.924 162.651ZM377.146 214.181C367.262 227.519 364.564 233.975 360.616 253.733C359.296 260.333 357.814 267.049 357.322 268.657C356.83 270.263 356.582 271.579 356.77 271.579C356.96 271.579 356.586 272.165 355.942 272.881C354.794 274.157 354.794 274.179 355.934 273.959C358.354 273.491 359.326 270.789 362.21 256.503C366.456 235.485 369.45 228.005 378.31 216.283C380.522 213.357 382.36 210.579 382.396 210.107C382.566 207.877 380.804 209.245 377.146 214.181ZM636.618 221.115C636.41 221.451 636.968 222.681 637.858 223.847C641.392 228.481 643.196 237.207 641.94 243.577C641.304 246.799 641.994 248.909 643.266 247.637C644.408 246.495 644.544 235.305 643.468 231.101C641.966 225.237 637.812 219.181 636.618 221.115ZM266.03 236.857C269.564 241.437 273.522 250.079 276.012 258.657C277.24 262.887 278.782 267.569 279.438 269.059C281.05 272.723 280.626 272.787 277.584 269.331C273.992 265.251 270.798 258.377 266.246 244.943C262.166 232.899 262.138 231.811 266.03 236.857ZM449.938 235.979C450.55 236.775 452.064 239.363 453.3 241.733C454.538 244.103 456.162 246.871 456.91 247.887L458.27 249.733L457.146 256.195C455.43 266.051 455.594 281.773 457.434 283.869C458.168 284.705 458.31 285.037 457.748 284.607C456.488 283.647 456.254 284.063 456.066 287.579C455.612 296.111 447.074 317.539 440.434 326.811C437.82 330.461 437.954 330.801 436.414 316.657C434.526 299.323 434.516 299.185 434.346 287.027L434.198 276.319L435.658 275.779C440.516 273.983 439.718 266.911 433.972 260.817C432.38 259.129 431.97 258.551 433.062 259.535L435.048 261.321L432.596 256.449C424.914 241.187 428.702 233.589 443.644 234.289C448.202 234.503 448.958 234.707 449.938 235.979ZM457.208 242.903C457.542 243.783 457.69 244.503 457.536 244.503C457.196 244.503 454.77 239.817 454.77 239.159C454.77 238.421 456.534 241.131 457.208 242.903ZM342.356 255.187C347.816 257.469 354.216 270.783 351.43 274.063L350.142 275.579L348.354 273.511C346.616 271.501 339.634 258.515 338.796 255.733C338.296 254.077 339.322 253.921 342.356 255.187ZM334.078 261.591C334.398 262.191 335.09 264.753 335.612 267.287C336.136 269.821 336.992 273.139 337.514 274.661L338.464 277.425L337.248 275.887C334.49 272.393 331.086 260.503 332.844 260.503C333.202 260.503 333.758 260.993 334.078 261.591ZM428.342 263.597C429.982 264.475 431.242 267.139 431.72 270.727L432.122 273.761L428.432 274.579C426.19 275.075 423.932 275.211 422.678 274.921C421.544 274.659 418.33 274.499 415.538 274.565C409.518 274.709 408.204 273.199 413.036 271.691C414.566 271.213 417.1 269.509 419.284 267.487C424.03 263.093 425.898 262.289 428.342 263.597ZM578.194 269.489C576.906 274.613 560.462 284.143 555.664 282.545C554.812 282.261 562.124 276.809 570.756 271.291C578.016 266.651 578.962 266.421 578.194 269.489ZM212.328 269.805C212 276.175 223.038 319.809 235.268 360.503L239.892 375.887L240.22 400.195C240.61 429.041 240.61 429.049 246.986 442.215C267.208 483.979 276.246 518.289 274.712 547.479L274.298 555.377L231.148 555.015C207.416 554.817 145.7 554.497 94 554.305L0 553.955V555.213C0 556.469 0.0319977 556.469 54.308 556.461C129.476 556.447 270.028 557.113 272.502 557.491C274.336 557.773 274.512 557.973 274.224 559.461C274.048 560.373 273.718 564.371 273.494 568.349L273.084 575.579H275.528C284.96 575.579 287.156 562.433 278.61 557.131L276.912 556.079L276.686 540.137C276.258 509.853 267.666 479.393 248.582 440.503C243.598 430.343 243.128 428.505 242.574 416.963C242.13 407.691 242.368 406.337 243.598 411.137C247.938 428.073 261.09 433.543 271.594 422.783C282.446 411.669 300.972 373.873 299.626 365.595C299.556 365.163 299.712 364.321 299.972 363.723C300.234 363.125 300.318 361.957 300.158 361.127C300 360.295 300.108 359.763 300.396 359.941C300.686 360.121 300.934 359.767 300.946 359.155C300.958 358.541 301.348 355.133 301.812 351.579C303.614 337.745 301.922 327.071 297.138 322.093C293.592 318.401 293.562 318.469 293.616 330.505C293.642 336.513 293.48 343.091 293.254 345.121C287.644 395.605 269.276 428.475 255.672 412.375C251.608 407.565 234.778 354.703 223.09 310.041C220.238 299.143 215.384 276.413 215.384 273.957C215.384 272.985 212.374 268.897 212.328 269.805ZM541.474 291.247C536.136 296.171 525.654 307.621 517.974 316.917C509.152 327.593 500.794 334.639 481.846 347.367C475.584 351.575 467.97 356.947 464.924 359.307C453.948 367.811 443.9 373.313 441.772 371.983C440.304 371.067 438.77 371.071 438.77 371.989C438.77 372.385 438.622 372.561 438.442 372.381C438.262 372.201 438.416 368.281 438.784 363.671C439.272 357.573 439.266 352.243 438.764 344.123L438.076 332.959L439.59 331.345C441.854 328.935 445.508 322.953 448.572 316.643C450.072 313.555 451.492 311.149 451.73 311.295C451.966 311.441 456.832 309.313 462.542 306.567C493.372 291.737 506.906 288.443 545.23 286.441C546.52 286.373 545.912 287.151 541.474 291.247ZM363.97 315.297C379.436 337.521 412.126 347.751 432.566 336.761C436.762 334.507 436.332 333.253 436.734 348.901C437.436 376.237 436.952 377.317 423.076 379.323C406.912 381.659 402.92 380.777 386.826 371.313C372.546 362.917 365.288 360.927 356 362.861L353.538 363.375L355.198 361.631C361.378 355.135 364.712 325.605 360.812 311.887C360.344 310.243 360.778 310.711 363.97 315.297ZM299.378 330.977C300.078 333.613 300.322 337.031 300.24 343.029C300.176 347.633 300.31 351.699 300.534 352.063C300.76 352.427 300.694 352.879 300.39 353.067C300.086 353.255 299.644 355.005 299.41 356.955C296.29 382.885 275.302 422.411 262.716 426.063C256.018 428.007 249.318 422.099 245.868 411.209C243.746 404.515 241.874 390.291 242.43 385.117C242.468 384.779 244.288 389.889 246.478 396.471C254.548 420.727 263.552 425.337 275.066 411.107C282.594 401.801 294.988 365.847 292.712 359.915C292.528 359.435 292.698 358.937 293.088 358.807C293.536 358.657 293.81 356.945 293.824 354.215C293.836 351.819 294.014 349.961 294.218 350.085C294.594 350.313 295.018 345.223 295.774 331.383L296.19 323.801L297.296 325.549C297.906 326.511 298.842 328.953 299.378 330.977ZM373.462 366.539C375.62 367.437 380.328 369.943 383.924 372.109C401.138 382.477 406.944 383.827 423.828 381.391C433.832 379.949 437.538 378.029 437.538 374.297C437.538 373.261 437.698 373.207 438.77 373.875C440.82 375.157 438.842 379.885 434.478 384.141C423.53 394.817 408.606 393.237 384.924 378.895C375.19 373.001 366.43 368.949 359.87 367.307C356.726 366.519 354.57 365.727 355.076 365.545C355.584 365.363 356.416 365.061 356.924 364.873C359.502 363.917 369.606 364.935 373.462 366.539ZM278.462 559.455C283.226 563.577 283.248 569.683 278.51 572.573C275.368 574.489 274.886 574.177 275.3 570.503C275.5 568.725 275.846 565.263 276.066 562.811C276.498 557.999 276.606 557.849 278.462 559.455Z" fill="#8D8D8D"/>
<mask id="path-2-outside-1_2411_1097" maskUnits="userSpaceOnUse" x="489" y="0" width="241" height="211" fill="black">
<rect fill="white" x="489" width="241" height="211"/>
<path fill-rule="evenodd" clip-rule="evenodd" d="M599.993 1.29301C593.095 2.56501 587.755 5.35701 581.943 10.733L579.224 13.248L576.89 12.946C574.446 12.628 569.025 12.806 567.568 13.25C567.107 13.391 565.975 13.718 565.053 13.978C562.748 14.626 559.43 16.467 558.059 17.859C557.338 18.591 555.775 20.733 555.502 21.363C555.335 21.748 555.037 22.44 554.838 22.901C554.633 23.378 554.451 25.064 554.416 26.814C554.361 29.574 554.301 29.897 553.833 29.966C551.757 30.273 546.153 32.215 545.626 32.811C545.549 32.898 544.947 33.318 544.288 33.746C537.077 38.421 535.066 47.257 538.598 58.748C538.872 59.637 538.296 60.497 537.426 60.497C536.92 60.497 532.832 62.632 530.531 64.097C523.742 68.421 519.735 73.021 517.373 79.202C515.017 85.366 520.548 96.467 527.833 100.198C529.979 101.296 529.821 100.686 529.119 105.191C527.441 115.948 536.08 130.102 546.604 133.839C547.373 134.112 548.253 134.441 548.561 134.572C552.671 136.313 564.118 136.237 569.839 134.432C570.304 134.285 570.572 134.446 571.08 135.177C574.218 139.692 580.732 144.442 585.737 145.865C586.66 146.127 587.855 146.481 588.393 146.651C588.931 146.822 591.257 146.982 593.561 147.008L597.751 147.055L597.658 148.139C597.606 148.736 597.311 150.172 597.002 151.331C596.693 152.491 596.373 153.753 596.29 154.138C595.322 158.659 590.343 165.935 585.855 169.389C583.331 171.331 582.991 171.174 584.177 168.616C586.735 163.097 586.767 157.798 584.256 155.63C579.674 151.673 566.995 159.054 565.454 166.577C564.254 172.433 570.607 176.523 577.606 174.4C579.939 173.692 580.195 173.795 579.262 175.063C575.239 180.534 567.685 186.092 561.559 188.089C560.713 188.364 559.732 188.7 559.379 188.834C557.49 189.553 557.298 189.107 558.693 187.244C559.671 185.937 560.493 184.43 561.244 182.566C563.924 175.91 554.305 172.505 547.378 177.658C540.432 182.826 543.63 190.476 552.738 190.476C554.215 190.476 554.297 190.665 553.243 191.644C548.991 195.591 538.613 200.461 532.817 201.23C531.49 201.406 531.488 201.386 532.683 199.77C535.123 196.471 533.936 191.594 530.694 191.594C530.469 191.594 530.207 191.468 530.112 191.314C529.772 190.764 524.828 190.983 523.357 191.614C518.285 193.788 517.83 198.301 522.453 200.586C524.348 201.522 525.638 201.936 526.66 201.936C528.648 201.936 527.104 203.226 523.626 204.471C522.735 204.79 521.754 205.153 521.447 205.279C520.813 205.537 519.475 205.916 516.835 206.585C513.552 207.416 506.405 207.223 508.032 206.346C512.285 204.055 511.385 199.98 506.626 199.98C501.342 199.98 499.327 203.688 503.283 206.132C503.818 206.463 504.256 206.882 504.256 207.062C504.256 207.375 504.002 207.51 501.74 208.4C500.062 209.06 494.418 208.911 492.358 208.152C490.359 207.415 490 207.384 490 207.946C490 208.177 490.231 208.366 490.513 208.366C490.795 208.366 491.117 208.458 491.23 208.57C492.908 210.248 501.195 209.998 504.468 208.171C505.635 207.519 505.766 207.506 507.834 207.823C513.171 208.64 520.497 207.107 527.202 203.77C529.653 202.551 530.519 202.263 532.234 202.101C533.373 201.993 534.745 201.775 535.283 201.616C535.821 201.457 536.702 201.202 537.24 201.05C542.323 199.609 550.843 195.129 553.805 192.34C555.53 190.715 556.291 190.254 557.543 190.075C565.098 188.997 574.163 183.009 580.388 174.988C581.332 173.772 582.355 172.64 582.662 172.472C588.473 169.299 593.601 163.38 596.246 156.793C597.104 154.659 598.456 149.418 598.456 148.229C598.456 147.297 599.324 146.311 600.146 146.311C601.975 146.311 606.355 144.437 608.552 142.713C613.652 138.713 613.724 130.403 608.678 128.112C603.528 125.773 599.399 132.445 598.107 145.19C597.994 146.304 591.293 146.682 588.253 145.746C587.792 145.604 586.723 145.277 585.877 145.02C581.049 143.55 575.999 139.976 572.369 135.458C571.347 134.187 571.36 134.166 573.599 133.446C577.61 132.156 576.889 129.54 572.523 129.54C570.31 129.54 569.519 130.29 569.733 132.188C569.896 133.638 569.797 133.745 567.998 134.063C561.626 135.189 557.211 135.384 553.173 134.719C549.51 134.115 547.51 133.509 545.058 132.259C537.458 128.386 533.543 123.184 530.204 112.518C529.278 109.559 530.185 99.896 531.23 101.587C531.493 102.012 535.888 101.92 536.471 101.477C537.846 100.434 536.19 97.953 534.117 97.953C532.787 97.953 532.038 98.32 531.039 99.459C529.5 101.215 524.529 97.864 521.134 92.782C520.033 91.134 519.723 90.543 518.497 87.75C517.744 86.036 517.564 81.123 518.195 79.505C521.391 71.307 526.873 66.255 538.323 60.952C538.895 60.687 539.051 60.737 539.441 61.314C541.137 63.815 542.816 64.463 544.297 63.19C546.44 61.347 545.17 59.272 541.989 59.419C539.889 59.516 539.748 59.442 539.27 57.981C534.787 44.269 539.771 34.193 552.561 31.11C554.288 30.694 554.942 30.944 555.077 32.073C555.26 33.598 557.026 34.879 557.925 34.137C559.886 32.518 559.233 30.029 556.848 30.029C555.107 30.029 554.471 26.185 555.711 23.161C556.681 20.795 557.034 20.251 558.599 18.708C560.836 16.503 562.807 15.486 567.575 14.076C568.874 13.692 574.635 13.471 576.513 13.734C578.338 13.989 578.295 13.916 577.881 16.029C577.514 17.901 578.966 19.407 581.138 19.407C583.823 19.407 583.9 15.893 581.248 14.328C579.931 13.551 579.945 13.531 584.287 9.68401C594.498 0.63901 608.452 -0.61699 619.001 6.55901C623.016 9.29101 625.704 12.236 624.731 12.838C623.491 13.604 625.057 15.773 626.85 15.773C628.586 15.773 628.737 14.95 627.346 13.068C626.375 11.752 627.023 11.039 630.887 9.17501C636.831 6.30701 647.535 5.07701 653.662 6.55801C665.132 9.32901 673.408 14.756 677.064 21.904C678.111 23.951 677.998 24.997 676.731 24.997C675.955 24.997 674.168 26.681 674.262 27.324C674.631 29.861 678.642 29.004 678.959 26.32C679.139 24.798 680.301 24.504 686.311 24.465C699.518 24.379 708.907 31.824 708.987 42.445L709.008 45.218L707.686 45.275C704.512 45.41 703.248 48.364 705.363 50.702C706.639 52.111 708.842 50.451 709.536 47.557C709.639 47.128 709.916 46.702 710.152 46.612C710.623 46.431 714.783 48.445 715.932 49.41C716.328 49.743 717.37 50.581 718.247 51.273C727.71 58.734 730.101 68.583 724.489 76.989C722.262 80.323 721.419 80.649 720.383 78.575C718.988 75.782 716.383 74.917 715.339 76.901C714.154 79.151 716.197 81.741 719.157 81.741C720.72 81.741 720.872 81.873 721.218 83.536C723.847 96.172 721.657 104.923 713.9 112.772C709.742 116.979 700.977 121.403 696.749 121.428C695.851 121.434 695.868 121.867 696.579 117.047C697.593 110.175 693.717 109.447 690.834 115.967C689.248 119.553 690.236 121.886 693.564 122.411C694.141 122.502 694.612 122.638 694.612 122.713C694.612 125.074 690.38 132.837 687.318 136.092C678.973 144.965 662.083 147.96 645.556 143.499C644.941 143.333 644.158 143.129 643.817 143.046C642.77 142.791 642.529 142.267 643.022 141.314C645.093 137.31 639.888 132.716 636.96 135.963C635.354 137.745 636.657 140.45 640.046 142.368C642.317 143.653 630.443 148.774 621.936 150.18C617.18 150.965 616.193 151.063 613.005 151.063C610.397 151.063 609.618 151.145 609.707 151.412C609.842 151.814 615.876 151.896 618.721 151.535C621.333 151.203 626.454 150.186 628.225 149.646C633.794 147.949 635.953 147 639.489 144.695L641.808 143.184L643.542 143.748C652.042 146.515 665.488 147.091 673.068 145.013C673.925 144.778 675.004 144.485 675.465 144.363C676.59 144.065 677.517 143.687 679.743 142.622C686.836 139.227 691.773 133.433 694.711 125.056C695.514 122.767 695.729 122.402 696.313 122.341C712.95 120.611 725.603 104.105 722.844 87.732C722.392 85.047 721.965 83.05 721.673 82.255C721.421 81.568 721.548 81.364 723.335 79.599C730.091 72.926 729.84 61.566 722.778 54.347C718.337 49.808 715.913 48.065 710.615 45.601C710.031 45.329 709.986 45.128 709.986 42.79C709.986 41.404 709.844 39.822 709.671 39.273C708.421 35.312 706.761 32.45 704.352 30.103C698.611 24.507 692.589 22.996 679.827 23.948C678.911 24.016 678.852 23.958 678.143 22.296C674.881 14.649 665.478 8.33101 653.382 5.66101C649.827 4.87601 639.711 5.23601 636.471 6.26201C636.087 6.38401 635.206 6.64801 634.515 6.84801C632.691 7.37501 628.887 9.15001 627.427 10.155C625.896 11.208 625.879 11.209 624.816 10.252C624.346 9.83001 623.348 8.93201 622.599 8.25901C621.114 6.92301 618.877 5.35301 616.904 4.26101C612.2 1.65701 604.934 0.382011 599.993 1.29301ZM626.795 13.667C627.437 14.646 627.357 14.985 626.506 14.883C625.654 14.781 625.122 14.099 625.377 13.435C625.632 12.77 626.277 12.875 626.795 13.667ZM580.822 15.062C581.867 15.602 582.657 17.236 582.245 18.006C581.543 19.317 578.61 18.276 578.61 16.716C578.61 14.955 579.43 14.342 580.822 15.062ZM678.12 26.352C678.12 27.861 676.695 28.452 675.325 27.509C674.971 27.265 675.036 27.114 675.735 26.54C676.454 25.949 676.81 25.794 677.911 25.594C678.026 25.573 678.12 25.914 678.12 26.352ZM558.09 31.568C558.48 33.123 556.977 34.109 556.304 32.739C555.504 31.107 555.565 30.867 556.782 30.867C557.757 30.867 557.938 30.964 558.09 31.568ZM708.8 46.311C709.201 46.811 707.887 49.707 707.058 50.151C705.752 50.85 704.583 48.746 705.451 47.26C706.116 46.121 708.179 45.537 708.8 46.311ZM544.274 60.841C544.814 61.693 543.833 63.013 542.659 63.013C541.893 63.013 540.255 61.435 540.374 60.811C540.543 59.927 543.709 59.951 544.274 60.841ZM718.155 77.059C718.922 77.656 720.049 79.551 720.049 80.242C720.049 81.495 717.374 80.989 716.215 79.517C714.997 77.973 716.646 75.884 718.155 77.059ZM535.522 99.311C536.855 100.336 536.25 100.879 533.673 100.969C531.091 101.06 530.88 100.871 532.121 99.576C533.016 98.641 534.502 98.526 535.522 99.311ZM695.928 113.932C696.002 114.598 695.914 116.087 695.731 117.24C695.549 118.393 695.334 119.749 695.254 120.252C695.007 121.805 693.046 122.093 691.607 120.788C690.935 120.178 690.717 118.023 691.227 117.027C691.364 116.76 691.691 116.099 691.955 115.558C693.521 112.342 695.655 111.469 695.928 113.932ZM608.506 128.974C612.561 131.042 612.666 137.518 608.709 141.382C606.164 143.867 599.574 146.526 599.089 145.263C598.808 144.529 600.108 137.011 600.709 135.902C600.853 135.636 600.972 135.249 600.972 135.044C600.972 134.356 602.607 131.283 603.537 130.225C605.118 128.424 606.665 128.035 608.506 128.974ZM574.83 130.814C575.876 131.604 573.088 133.369 571.202 133.11C570.539 133.019 570.263 131.424 570.798 130.779C571.252 130.233 574.093 130.257 574.83 130.814ZM641.712 136.926C642.871 138.19 642.992 140.117 641.99 141.36L641.363 142.14L639.854 141.185C637.312 139.579 636.465 137.627 637.75 136.341C638.788 135.304 640.451 135.549 641.712 136.926ZM582.272 155.573C585.59 156.682 586.31 161.62 583.958 167.136C582.124 171.436 581.397 172.302 578.889 173.168C571.216 175.819 564.809 172.278 566.387 166.259C567.907 160.466 577.533 153.99 582.272 155.573ZM558.065 176.439C560.049 177.44 561.696 181.454 560.44 182.23C560.287 182.325 560.161 182.608 560.161 182.859C560.161 183.58 558.107 186.848 556.714 188.344L555.446 189.706L552.842 189.569C549.427 189.39 547.586 188.744 545.794 187.096L544.368 185.785V183.986C544.368 178.874 553.223 173.995 558.065 176.439ZM530.676 192.464C534.083 194.066 534.222 197.116 531.031 200.257L529.833 201.437L527.851 201.26C520.078 200.565 517.483 195.547 523.326 192.51C525.012 191.634 528.859 191.61 530.676 192.464ZM508.947 201.38C511.615 203.006 507.547 207.333 504.645 205.956C502.298 204.843 501.236 202.676 502.649 201.882C504.754 200.7 507.475 200.483 508.947 201.38Z"/>
</mask>
<path fill-rule="evenodd" clip-rule="evenodd" d="M599.993 1.29301C593.095 2.56501 587.755 5.35701 581.943 10.733L579.224 13.248L576.89 12.946C574.446 12.628 569.025 12.806 567.568 13.25C567.107 13.391 565.975 13.718 565.053 13.978C562.748 14.626 559.43 16.467 558.059 17.859C557.338 18.591 555.775 20.733 555.502 21.363C555.335 21.748 555.037 22.44 554.838 22.901C554.633 23.378 554.451 25.064 554.416 26.814C554.361 29.574 554.301 29.897 553.833 29.966C551.757 30.273 546.153 32.215 545.626 32.811C545.549 32.898 544.947 33.318 544.288 33.746C537.077 38.421 535.066 47.257 538.598 58.748C538.872 59.637 538.296 60.497 537.426 60.497C536.92 60.497 532.832 62.632 530.531 64.097C523.742 68.421 519.735 73.021 517.373 79.202C515.017 85.366 520.548 96.467 527.833 100.198C529.979 101.296 529.821 100.686 529.119 105.191C527.441 115.948 536.08 130.102 546.604 133.839C547.373 134.112 548.253 134.441 548.561 134.572C552.671 136.313 564.118 136.237 569.839 134.432C570.304 134.285 570.572 134.446 571.08 135.177C574.218 139.692 580.732 144.442 585.737 145.865C586.66 146.127 587.855 146.481 588.393 146.651C588.931 146.822 591.257 146.982 593.561 147.008L597.751 147.055L597.658 148.139C597.606 148.736 597.311 150.172 597.002 151.331C596.693 152.491 596.373 153.753 596.29 154.138C595.322 158.659 590.343 165.935 585.855 169.389C583.331 171.331 582.991 171.174 584.177 168.616C586.735 163.097 586.767 157.798 584.256 155.63C579.674 151.673 566.995 159.054 565.454 166.577C564.254 172.433 570.607 176.523 577.606 174.4C579.939 173.692 580.195 173.795 579.262 175.063C575.239 180.534 567.685 186.092 561.559 188.089C560.713 188.364 559.732 188.7 559.379 188.834C557.49 189.553 557.298 189.107 558.693 187.244C559.671 185.937 560.493 184.43 561.244 182.566C563.924 175.91 554.305 172.505 547.378 177.658C540.432 182.826 543.63 190.476 552.738 190.476C554.215 190.476 554.297 190.665 553.243 191.644C548.991 195.591 538.613 200.461 532.817 201.23C531.49 201.406 531.488 201.386 532.683 199.77C535.123 196.471 533.936 191.594 530.694 191.594C530.469 191.594 530.207 191.468 530.112 191.314C529.772 190.764 524.828 190.983 523.357 191.614C518.285 193.788 517.83 198.301 522.453 200.586C524.348 201.522 525.638 201.936 526.66 201.936C528.648 201.936 527.104 203.226 523.626 204.471C522.735 204.79 521.754 205.153 521.447 205.279C520.813 205.537 519.475 205.916 516.835 206.585C513.552 207.416 506.405 207.223 508.032 206.346C512.285 204.055 511.385 199.98 506.626 199.98C501.342 199.98 499.327 203.688 503.283 206.132C503.818 206.463 504.256 206.882 504.256 207.062C504.256 207.375 504.002 207.51 501.74 208.4C500.062 209.06 494.418 208.911 492.358 208.152C490.359 207.415 490 207.384 490 207.946C490 208.177 490.231 208.366 490.513 208.366C490.795 208.366 491.117 208.458 491.23 208.57C492.908 210.248 501.195 209.998 504.468 208.171C505.635 207.519 505.766 207.506 507.834 207.823C513.171 208.64 520.497 207.107 527.202 203.77C529.653 202.551 530.519 202.263 532.234 202.101C533.373 201.993 534.745 201.775 535.283 201.616C535.821 201.457 536.702 201.202 537.24 201.05C542.323 199.609 550.843 195.129 553.805 192.34C555.53 190.715 556.291 190.254 557.543 190.075C565.098 188.997 574.163 183.009 580.388 174.988C581.332 173.772 582.355 172.64 582.662 172.472C588.473 169.299 593.601 163.38 596.246 156.793C597.104 154.659 598.456 149.418 598.456 148.229C598.456 147.297 599.324 146.311 600.146 146.311C601.975 146.311 606.355 144.437 608.552 142.713C613.652 138.713 613.724 130.403 608.678 128.112C603.528 125.773 599.399 132.445 598.107 145.19C597.994 146.304 591.293 146.682 588.253 145.746C587.792 145.604 586.723 145.277 585.877 145.02C581.049 143.55 575.999 139.976 572.369 135.458C571.347 134.187 571.36 134.166 573.599 133.446C577.61 132.156 576.889 129.54 572.523 129.54C570.31 129.54 569.519 130.29 569.733 132.188C569.896 133.638 569.797 133.745 567.998 134.063C561.626 135.189 557.211 135.384 553.173 134.719C549.51 134.115 547.51 133.509 545.058 132.259C537.458 128.386 533.543 123.184 530.204 112.518C529.278 109.559 530.185 99.896 531.23 101.587C531.493 102.012 535.888 101.92 536.471 101.477C537.846 100.434 536.19 97.953 534.117 97.953C532.787 97.953 532.038 98.32 531.039 99.459C529.5 101.215 524.529 97.864 521.134 92.782C520.033 91.134 519.723 90.543 518.497 87.75C517.744 86.036 517.564 81.123 518.195 79.505C521.391 71.307 526.873 66.255 538.323 60.952C538.895 60.687 539.051 60.737 539.441 61.314C541.137 63.815 542.816 64.463 544.297 63.19C546.44 61.347 545.17 59.272 541.989 59.419C539.889 59.516 539.748 59.442 539.27 57.981C534.787 44.269 539.771 34.193 552.561 31.11C554.288 30.694 554.942 30.944 555.077 32.073C555.26 33.598 557.026 34.879 557.925 34.137C559.886 32.518 559.233 30.029 556.848 30.029C555.107 30.029 554.471 26.185 555.711 23.161C556.681 20.795 557.034 20.251 558.599 18.708C560.836 16.503 562.807 15.486 567.575 14.076C568.874 13.692 574.635 13.471 576.513 13.734C578.338 13.989 578.295 13.916 577.881 16.029C577.514 17.901 578.966 19.407 581.138 19.407C583.823 19.407 583.9 15.893 581.248 14.328C579.931 13.551 579.945 13.531 584.287 9.68401C594.498 0.63901 608.452 -0.61699 619.001 6.55901C623.016 9.29101 625.704 12.236 624.731 12.838C623.491 13.604 625.057 15.773 626.85 15.773C628.586 15.773 628.737 14.95 627.346 13.068C626.375 11.752 627.023 11.039 630.887 9.17501C636.831 6.30701 647.535 5.07701 653.662 6.55801C665.132 9.32901 673.408 14.756 677.064 21.904C678.111 23.951 677.998 24.997 676.731 24.997C675.955 24.997 674.168 26.681 674.262 27.324C674.631 29.861 678.642 29.004 678.959 26.32C679.139 24.798 680.301 24.504 686.311 24.465C699.518 24.379 708.907 31.824 708.987 42.445L709.008 45.218L707.686 45.275C704.512 45.41 703.248 48.364 705.363 50.702C706.639 52.111 708.842 50.451 709.536 47.557C709.639 47.128 709.916 46.702 710.152 46.612C710.623 46.431 714.783 48.445 715.932 49.41C716.328 49.743 717.37 50.581 718.247 51.273C727.71 58.734 730.101 68.583 724.489 76.989C722.262 80.323 721.419 80.649 720.383 78.575C718.988 75.782 716.383 74.917 715.339 76.901C714.154 79.151 716.197 81.741 719.157 81.741C720.72 81.741 720.872 81.873 721.218 83.536C723.847 96.172 721.657 104.923 713.9 112.772C709.742 116.979 700.977 121.403 696.749 121.428C695.851 121.434 695.868 121.867 696.579 117.047C697.593 110.175 693.717 109.447 690.834 115.967C689.248 119.553 690.236 121.886 693.564 122.411C694.141 122.502 694.612 122.638 694.612 122.713C694.612 125.074 690.38 132.837 687.318 136.092C678.973 144.965 662.083 147.96 645.556 143.499C644.941 143.333 644.158 143.129 643.817 143.046C642.77 142.791 642.529 142.267 643.022 141.314C645.093 137.31 639.888 132.716 636.96 135.963C635.354 137.745 636.657 140.45 640.046 142.368C642.317 143.653 630.443 148.774 621.936 150.18C617.18 150.965 616.193 151.063 613.005 151.063C610.397 151.063 609.618 151.145 609.707 151.412C609.842 151.814 615.876 151.896 618.721 151.535C621.333 151.203 626.454 150.186 628.225 149.646C633.794 147.949 635.953 147 639.489 144.695L641.808 143.184L643.542 143.748C652.042 146.515 665.488 147.091 673.068 145.013C673.925 144.778 675.004 144.485 675.465 144.363C676.59 144.065 677.517 143.687 679.743 142.622C686.836 139.227 691.773 133.433 694.711 125.056C695.514 122.767 695.729 122.402 696.313 122.341C712.95 120.611 725.603 104.105 722.844 87.732C722.392 85.047 721.965 83.05 721.673 82.255C721.421 81.568 721.548 81.364 723.335 79.599C730.091 72.926 729.84 61.566 722.778 54.347C718.337 49.808 715.913 48.065 710.615 45.601C710.031 45.329 709.986 45.128 709.986 42.79C709.986 41.404 709.844 39.822 709.671 39.273C708.421 35.312 706.761 32.45 704.352 30.103C698.611 24.507 692.589 22.996 679.827 23.948C678.911 24.016 678.852 23.958 678.143 22.296C674.881 14.649 665.478 8.33101 653.382 5.66101C649.827 4.87601 639.711 5.23601 636.471 6.26201C636.087 6.38401 635.206 6.64801 634.515 6.84801C632.691 7.37501 628.887 9.15001 627.427 10.155C625.896 11.208 625.879 11.209 624.816 10.252C624.346 9.83001 623.348 8.93201 622.599 8.25901C621.114 6.92301 618.877 5.35301 616.904 4.26101C612.2 1.65701 604.934 0.382011 599.993 1.29301ZM626.795 13.667C627.437 14.646 627.357 14.985 626.506 14.883C625.654 14.781 625.122 14.099 625.377 13.435C625.632 12.77 626.277 12.875 626.795 13.667ZM580.822 15.062C581.867 15.602 582.657 17.236 582.245 18.006C581.543 19.317 578.61 18.276 578.61 16.716C578.61 14.955 579.43 14.342 580.822 15.062ZM678.12 26.352C678.12 27.861 676.695 28.452 675.325 27.509C674.971 27.265 675.036 27.114 675.735 26.54C676.454 25.949 676.81 25.794 677.911 25.594C678.026 25.573 678.12 25.914 678.12 26.352ZM558.09 31.568C558.48 33.123 556.977 34.109 556.304 32.739C555.504 31.107 555.565 30.867 556.782 30.867C557.757 30.867 557.938 30.964 558.09 31.568ZM708.8 46.311C709.201 46.811 707.887 49.707 707.058 50.151C705.752 50.85 704.583 48.746 705.451 47.26C706.116 46.121 708.179 45.537 708.8 46.311ZM544.274 60.841C544.814 61.693 543.833 63.013 542.659 63.013C541.893 63.013 540.255 61.435 540.374 60.811C540.543 59.927 543.709 59.951 544.274 60.841ZM718.155 77.059C718.922 77.656 720.049 79.551 720.049 80.242C720.049 81.495 717.374 80.989 716.215 79.517C714.997 77.973 716.646 75.884 718.155 77.059ZM535.522 99.311C536.855 100.336 536.25 100.879 533.673 100.969C531.091 101.06 530.88 100.871 532.121 99.576C533.016 98.641 534.502 98.526 535.522 99.311ZM695.928 113.932C696.002 114.598 695.914 116.087 695.731 117.24C695.549 118.393 695.334 119.749 695.254 120.252C695.007 121.805 693.046 122.093 691.607 120.788C690.935 120.178 690.717 118.023 691.227 117.027C691.364 116.76 691.691 116.099 691.955 115.558C693.521 112.342 695.655 111.469 695.928 113.932ZM608.506 128.974C612.561 131.042 612.666 137.518 608.709 141.382C606.164 143.867 599.574 146.526 599.089 145.263C598.808 144.529 600.108 137.011 600.709 135.902C600.853 135.636 600.972 135.249 600.972 135.044C600.972 134.356 602.607 131.283 603.537 130.225C605.118 128.424 606.665 128.035 608.506 128.974ZM574.83 130.814C575.876 131.604 573.088 133.369 571.202 133.11C570.539 133.019 570.263 131.424 570.798 130.779C571.252 130.233 574.093 130.257 574.83 130.814ZM641.712 136.926C642.871 138.19 642.992 140.117 641.99 141.36L641.363 142.14L639.854 141.185C637.312 139.579 636.465 137.627 637.75 136.341C638.788 135.304 640.451 135.549 641.712 136.926ZM582.272 155.573C585.59 156.682 586.31 161.62 583.958 167.136C582.124 171.436 581.397 172.302 578.889 173.168C571.216 175.819 564.809 172.278 566.387 166.259C567.907 160.466 577.533 153.99 582.272 155.573ZM558.065 176.439C560.049 177.44 561.696 181.454 560.44 182.23C560.287 182.325 560.161 182.608 560.161 182.859C560.161 183.58 558.107 186.848 556.714 188.344L555.446 189.706L552.842 189.569C549.427 189.39 547.586 188.744 545.794 187.096L544.368 185.785V183.986C544.368 178.874 553.223 173.995 558.065 176.439ZM530.676 192.464C534.083 194.066 534.222 197.116 531.031 200.257L529.833 201.437L527.851 201.26C520.078 200.565 517.483 195.547 523.326 192.51C525.012 191.634 528.859 191.61 530.676 192.464ZM508.947 201.38C511.615 203.006 507.547 207.333 504.645 205.956C502.298 204.843 501.236 202.676 502.649 201.882C504.754 200.7 507.475 200.483 508.947 201.38Z" fill="#8D8D8D"/>
<path fill-rule="evenodd" clip-rule="evenodd" d="M599.993 1.29301C593.095 2.56501 587.755 5.35701 581.943 10.733L579.224 13.248L576.89 12.946C574.446 12.628 569.025 12.806 567.568 13.25C567.107 13.391 565.975 13.718 565.053 13.978C562.748 14.626 559.43 16.467 558.059 17.859C557.338 18.591 555.775 20.733 555.502 21.363C555.335 21.748 555.037 22.44 554.838 22.901C554.633 23.378 554.451 25.064 554.416 26.814C554.361 29.574 554.301 29.897 553.833 29.966C551.757 30.273 546.153 32.215 545.626 32.811C545.549 32.898 544.947 33.318 544.288 33.746C537.077 38.421 535.066 47.257 538.598 58.748C538.872 59.637 538.296 60.497 537.426 60.497C536.92 60.497 532.832 62.632 530.531 64.097C523.742 68.421 519.735 73.021 517.373 79.202C515.017 85.366 520.548 96.467 527.833 100.198C529.979 101.296 529.821 100.686 529.119 105.191C527.441 115.948 536.08 130.102 546.604 133.839C547.373 134.112 548.253 134.441 548.561 134.572C552.671 136.313 564.118 136.237 569.839 134.432C570.304 134.285 570.572 134.446 571.08 135.177C574.218 139.692 580.732 144.442 585.737 145.865C586.66 146.127 587.855 146.481 588.393 146.651C588.931 146.822 591.257 146.982 593.561 147.008L597.751 147.055L597.658 148.139C597.606 148.736 597.311 150.172 597.002 151.331C596.693 152.491 596.373 153.753 596.29 154.138C595.322 158.659 590.343 165.935 585.855 169.389C583.331 171.331 582.991 171.174 584.177 168.616C586.735 163.097 586.767 157.798 584.256 155.63C579.674 151.673 566.995 159.054 565.454 166.577C564.254 172.433 570.607 176.523 577.606 174.4C579.939 173.692 580.195 173.795 579.262 175.063C575.239 180.534 567.685 186.092 561.559 188.089C560.713 188.364 559.732 188.7 559.379 188.834C557.49 189.553 557.298 189.107 558.693 187.244C559.671 185.937 560.493 184.43 561.244 182.566C563.924 175.91 554.305 172.505 547.378 177.658C540.432 182.826 543.63 190.476 552.738 190.476C554.215 190.476 554.297 190.665 553.243 191.644C548.991 195.591 538.613 200.461 532.817 201.23C531.49 201.406 531.488 201.386 532.683 199.77C535.123 196.471 533.936 191.594 530.694 191.594C530.469 191.594 530.207 191.468 530.112 191.314C529.772 190.764 524.828 190.983 523.357 191.614C518.285 193.788 517.83 198.301 522.453 200.586C524.348 201.522 525.638 201.936 526.66 201.936C528.648 201.936 527.104 203.226 523.626 204.471C522.735 204.79 521.754 205.153 521.447 205.279C520.813 205.537 519.475 205.916 516.835 206.585C513.552 207.416 506.405 207.223 508.032 206.346C512.285 204.055 511.385 199.98 506.626 199.98C501.342 199.98 499.327 203.688 503.283 206.132C503.818 206.463 504.256 206.882 504.256 207.062C504.256 207.375 504.002 207.51 501.74 208.4C500.062 209.06 494.418 208.911 492.358 208.152C490.359 207.415 490 207.384 490 207.946C490 208.177 490.231 208.366 490.513 208.366C490.795 208.366 491.117 208.458 491.23 208.57C492.908 210.248 501.195 209.998 504.468 208.171C505.635 207.519 505.766 207.506 507.834 207.823C513.171 208.64 520.497 207.107 527.202 203.77C529.653 202.551 530.519 202.263 532.234 202.101C533.373 201.993 534.745 201.775 535.283 201.616C535.821 201.457 536.702 201.202 537.24 201.05C542.323 199.609 550.843 195.129 553.805 192.34C555.53 190.715 556.291 190.254 557.543 190.075C565.098 188.997 574.163 183.009 580.388 174.988C581.332 173.772 582.355 172.64 582.662 172.472C588.473 169.299 593.601 163.38 596.246 156.793C597.104 154.659 598.456 149.418 598.456 148.229C598.456 147.297 599.324 146.311 600.146 146.311C601.975 146.311 606.355 144.437 608.552 142.713C613.652 138.713 613.724 130.403 608.678 128.112C603.528 125.773 599.399 132.445 598.107 145.19C597.994 146.304 591.293 146.682 588.253 145.746C587.792 145.604 586.723 145.277 585.877 145.02C581.049 143.55 575.999 139.976 572.369 135.458C571.347 134.187 571.36 134.166 573.599 133.446C577.61 132.156 576.889 129.54 572.523 129.54C570.31 129.54 569.519 130.29 569.733 132.188C569.896 133.638 569.797 133.745 567.998 134.063C561.626 135.189 557.211 135.384 553.173 134.719C549.51 134.115 547.51 133.509 545.058 132.259C537.458 128.386 533.543 123.184 530.204 112.518C529.278 109.559 530.185 99.896 531.23 101.587C531.493 102.012 535.888 101.92 536.471 101.477C537.846 100.434 536.19 97.953 534.117 97.953C532.787 97.953 532.038 98.32 531.039 99.459C529.5 101.215 524.529 97.864 521.134 92.782C520.033 91.134 519.723 90.543 518.497 87.75C517.744 86.036 517.564 81.123 518.195 79.505C521.391 71.307 526.873 66.255 538.323 60.952C538.895 60.687 539.051 60.737 539.441 61.314C541.137 63.815 542.816 64.463 544.297 63.19C546.44 61.347 545.17 59.272 541.989 59.419C539.889 59.516 539.748 59.442 539.27 57.981C534.787 44.269 539.771 34.193 552.561 31.11C554.288 30.694 554.942 30.944 555.077 32.073C555.26 33.598 557.026 34.879 557.925 34.137C559.886 32.518 559.233 30.029 556.848 30.029C555.107 30.029 554.471 26.185 555.711 23.161C556.681 20.795 557.034 20.251 558.599 18.708C560.836 16.503 562.807 15.486 567.575 14.076C568.874 13.692 574.635 13.471 576.513 13.734C578.338 13.989 578.295 13.916 577.881 16.029C577.514 17.901 578.966 19.407 581.138 19.407C583.823 19.407 583.9 15.893 581.248 14.328C579.931 13.551 579.945 13.531 584.287 9.68401C594.498 0.63901 608.452 -0.61699 619.001 6.55901C623.016 9.29101 625.704 12.236 624.731 12.838C623.491 13.604 625.057 15.773 626.85 15.773C628.586 15.773 628.737 14.95 627.346 13.068C626.375 11.752 627.023 11.039 630.887 9.17501C636.831 6.30701 647.535 5.07701 653.662 6.55801C665.132 9.32901 673.408 14.756 677.064 21.904C678.111 23.951 677.998 24.997 676.731 24.997C675.955 24.997 674.168 26.681 674.262 27.324C674.631 29.861 678.642 29.004 678.959 26.32C679.139 24.798 680.301 24.504 686.311 24.465C699.518 24.379 708.907 31.824 708.987 42.445L709.008 45.218L707.686 45.275C704.512 45.41 703.248 48.364 705.363 50.702C706.639 52.111 708.842 50.451 709.536 47.557C709.639 47.128 709.916 46.702 710.152 46.612C710.623 46.431 714.783 48.445 715.932 49.41C716.328 49.743 717.37 50.581 718.247 51.273C727.71 58.734 730.101 68.583 724.489 76.989C722.262 80.323 721.419 80.649 720.383 78.575C718.988 75.782 716.383 74.917 715.339 76.901C714.154 79.151 716.197 81.741 719.157 81.741C720.72 81.741 720.872 81.873 721.218 83.536C723.847 96.172 721.657 104.923 713.9 112.772C709.742 116.979 700.977 121.403 696.749 121.428C695.851 121.434 695.868 121.867 696.579 117.047C697.593 110.175 693.717 109.447 690.834 115.967C689.248 119.553 690.236 121.886 693.564 122.411C694.141 122.502 694.612 122.638 694.612 122.713C694.612 125.074 690.38 132.837 687.318 136.092C678.973 144.965 662.083 147.96 645.556 143.499C644.941 143.333 644.158 143.129 643.817 143.046C642.77 142.791 642.529 142.267 643.022 141.314C645.093 137.31 639.888 132.716 636.96 135.963C635.354 137.745 636.657 140.45 640.046 142.368C642.317 143.653 630.443 148.774 621.936 150.18C617.18 150.965 616.193 151.063 613.005 151.063C610.397 151.063 609.618 151.145 609.707 151.412C609.842 151.814 615.876 151.896 618.721 151.535C621.333 151.203 626.454 150.186 628.225 149.646C633.794 147.949 635.953 147 639.489 144.695L641.808 143.184L643.542 143.748C652.042 146.515 665.488 147.091 673.068 145.013C673.925 144.778 675.004 144.485 675.465 144.363C676.59 144.065 677.517 143.687 679.743 142.622C686.836 139.227 691.773 133.433 694.711 125.056C695.514 122.767 695.729 122.402 696.313 122.341C712.95 120.611 725.603 104.105 722.844 87.732C722.392 85.047 721.965 83.05 721.673 82.255C721.421 81.568 721.548 81.364 723.335 79.599C730.091 72.926 729.84 61.566 722.778 54.347C718.337 49.808 715.913 48.065 710.615 45.601C710.031 45.329 709.986 45.128 709.986 42.79C709.986 41.404 709.844 39.822 709.671 39.273C708.421 35.312 706.761 32.45 704.352 30.103C698.611 24.507 692.589 22.996 679.827 23.948C678.911 24.016 678.852 23.958 678.143 22.296C674.881 14.649 665.478 8.33101 653.382 5.66101C649.827 4.87601 639.711 5.23601 636.471 6.26201C636.087 6.38401 635.206 6.64801 634.515 6.84801C632.691 7.37501 628.887 9.15001 627.427 10.155C625.896 11.208 625.879 11.209 624.816 10.252C624.346 9.83001 623.348 8.93201 622.599 8.25901C621.114 6.92301 618.877 5.35301 616.904 4.26101C612.2 1.65701 604.934 0.382011 599.993 1.29301ZM626.795 13.667C627.437 14.646 627.357 14.985 626.506 14.883C625.654 14.781 625.122 14.099 625.377 13.435C625.632 12.77 626.277 12.875 626.795 13.667ZM580.822 15.062C581.867 15.602 582.657 17.236 582.245 18.006C581.543 19.317 578.61 18.276 578.61 16.716C578.61 14.955 579.43 14.342 580.822 15.062ZM678.12 26.352C678.12 27.861 676.695 28.452 675.325 27.509C674.971 27.265 675.036 27.114 675.735 26.54C676.454 25.949 676.81 25.794 677.911 25.594C678.026 25.573 678.12 25.914 678.12 26.352ZM558.09 31.568C558.48 33.123 556.977 34.109 556.304 32.739C555.504 31.107 555.565 30.867 556.782 30.867C557.757 30.867 557.938 30.964 558.09 31.568ZM708.8 46.311C709.201 46.811 707.887 49.707 707.058 50.151C705.752 50.85 704.583 48.746 705.451 47.26C706.116 46.121 708.179 45.537 708.8 46.311ZM544.274 60.841C544.814 61.693 543.833 63.013 542.659 63.013C541.893 63.013 540.255 61.435 540.374 60.811C540.543 59.927 543.709 59.951 544.274 60.841ZM718.155 77.059C718.922 77.656 720.049 79.551 720.049 80.242C720.049 81.495 717.374 80.989 716.215 79.517C714.997 77.973 716.646 75.884 718.155 77.059ZM535.522 99.311C536.855 100.336 536.25 100.879 533.673 100.969C531.091 101.06 530.88 100.871 532.121 99.576C533.016 98.641 534.502 98.526 535.522 99.311ZM695.928 113.932C696.002 114.598 695.914 116.087 695.731 117.24C695.549 118.393 695.334 119.749 695.254 120.252C695.007 121.805 693.046 122.093 691.607 120.788C690.935 120.178 690.717 118.023 691.227 117.027C691.364 116.76 691.691 116.099 691.955 115.558C693.521 112.342 695.655 111.469 695.928 113.932ZM608.506 128.974C612.561 131.042 612.666 137.518 608.709 141.382C606.164 143.867 599.574 146.526 599.089 145.263C598.808 144.529 600.108 137.011 600.709 135.902C600.853 135.636 600.972 135.249 600.972 135.044C600.972 134.356 602.607 131.283 603.537 130.225C605.118 128.424 606.665 128.035 608.506 128.974ZM574.83 130.814C575.876 131.604 573.088 133.369 571.202 133.11C570.539 133.019 570.263 131.424 570.798 130.779C571.252 130.233 574.093 130.257 574.83 130.814ZM641.712 136.926C642.871 138.19 642.992 140.117 641.99 141.36L641.363 142.14L639.854 141.185C637.312 139.579 636.465 137.627 637.75 136.341C638.788 135.304 640.451 135.549 641.712 136.926ZM582.272 155.573C585.59 156.682 586.31 161.62 583.958 167.136C582.124 171.436 581.397 172.302 578.889 173.168C571.216 175.819 564.809 172.278 566.387 166.259C567.907 160.466 577.533 153.99 582.272 155.573ZM558.065 176.439C560.049 177.44 561.696 181.454 560.44 182.23C560.287 182.325 560.161 182.608 560.161 182.859C560.161 183.58 558.107 186.848 556.714 188.344L555.446 189.706L552.842 189.569C549.427 189.39 547.586 188.744 545.794 187.096L544.368 185.785V183.986C544.368 178.874 553.223 173.995 558.065 176.439ZM530.676 192.464C534.083 194.066 534.222 197.116 531.031 200.257L529.833 201.437L527.851 201.26C520.078 200.565 517.483 195.547 523.326 192.51C525.012 191.634 528.859 191.61 530.676 192.464ZM508.947 201.38C511.615 203.006 507.547 207.333 504.645 205.956C502.298 204.843 501.236 202.676 502.649 201.882C504.754 200.7 507.475 200.483 508.947 201.38Z" stroke="#8D8D8D" stroke-width="2" mask="url(#path-2-outside-1_2411_1097)"/>
</svg>
