<svg width="519" height="738" viewBox="0 0 519 738" fill="none" xmlns="http://www.w3.org/2000/svg">
<path d="M70.875 279.909C70.875 175.9 155.191 91.584 259.2 91.584V91.584C363.209 91.584 447.525 175.9 447.525 279.909V437.859C447.525 541.868 363.209 626.184 259.2 626.184V626.184C155.191 626.184 70.875 541.868 70.875 437.859V279.909Z" fill="white" stroke="#2B2B2B" stroke-width="12.15"/>
<path d="M65.8508 419.637C67.6246 419.637 69.3886 419.678 71.1418 419.758C71.1176 420.726 71.1047 421.698 71.1047 422.673C71.1052 475.795 107.331 518.86 152.017 518.86C168.264 518.86 183.393 513.165 196.069 503.365C213.956 491.434 235.722 484.437 259.2 484.437C282.679 484.437 304.445 491.436 322.332 503.367C335.008 513.166 350.135 518.86 366.382 518.86C411.068 518.86 447.295 475.795 447.295 422.673C447.295 421.736 447.282 420.802 447.26 419.872C449.358 419.738 451.472 419.664 453.6 419.645V429.759C453.6 537.123 366.564 624.159 259.2 624.159C151.837 624.159 64.8005 537.123 64.8 429.76V419.642C65.1499 419.638 65.5002 419.637 65.8508 419.637ZM259.199 492.371C219.156 492.371 186.694 510.957 186.694 533.884C186.694 549.992 202.719 563.957 226.139 570.839C233.597 562.552 245.627 557.171 259.199 557.171C272.772 557.171 284.801 562.553 292.259 570.839C315.68 563.957 331.705 549.992 331.705 533.884C331.705 510.957 299.243 492.371 259.199 492.371Z" fill="#2B2B2B"/>
<path d="M70.875 279.909C70.875 175.9 155.191 91.584 259.2 91.584V91.584C363.209 91.584 447.525 175.9 447.525 279.909V437.859C447.525 541.868 363.209 626.184 259.2 626.184V626.184C155.191 626.184 70.875 541.868 70.875 437.859V279.909Z" stroke="#2B2B2B" stroke-width="12.15"/>
<path d="M300.713 519.618C282.488 537.843 241.988 537.843 223.763 519.618" stroke="#2B2B2B" stroke-width="12.15"/>
<rect x="167.062" y="346.227" width="26.325" height="44.55" rx="13.1625" fill="#2B2B2B"/>
<rect x="322.988" y="346.227" width="26.325" height="44.55" rx="13.1625" fill="#2B2B2B"/>
<path d="M141.75 332.052C159.975 313.827 200.475 313.827 218.7 332.052" stroke="#2B2B2B" stroke-width="6.075"/>
<path d="M297.675 332.052C315.9 313.827 356.4 313.827 374.625 332.052" stroke="#2B2B2B" stroke-width="6.075"/>
<path d="M287.55 425.709L292.541 450.36C294.457 459.822 290.974 469.995 281.628 472.414C264.76 476.782 241.961 473.599 230.85 462.866" stroke="#2B2B2B" stroke-width="6.075"/>
<path d="M53.667 326.847C28.3283 319.983 4.26106 341.347 8.07245 367.321L11.4018 390.01C14.3521 410.115 28.2092 426.926 47.3821 433.659L70.875 441.909L70.875 331.509L53.667 326.847Z" fill="#BCBCBC" stroke="#2B2B2B" stroke-width="12.15"/>
<path d="M32.4 340.658L46.3613 343.197C51.1756 344.072 54.675 348.265 54.675 353.158V396.346" stroke="#2B2B2B" stroke-width="6.075"/>
<path d="M54.675 361.423C44.8657 360.172 40.0725 361.145 32.4 364.958" stroke="#2B2B2B" stroke-width="6.075"/>
<path d="M464.733 326.847C490.072 319.983 514.139 341.347 510.328 367.321L506.998 390.01C504.048 410.115 490.191 426.926 471.018 433.659L447.525 441.909L447.525 331.509L464.733 326.847Z" fill="#BCBCBC" stroke="#2B2B2B" stroke-width="12.15"/>
<path d="M486 340.658L472.039 343.197C467.225 344.072 463.725 348.265 463.725 353.158V396.346" stroke="#2B2B2B" stroke-width="6.075"/>
<path d="M463.725 361.423C473.534 360.172 478.328 361.145 486 364.958" stroke="#2B2B2B" stroke-width="6.075"/>
<path d="M64.8 335.706H95.1751M234.9 343.571C235.298 343.654 235.697 343.738 236.096 343.823C250.379 346.843 265.118 347.031 279.45 344.251V344.251M453.6 335.706H419.175M156.938 292.057C233.344 286.623 276.824 286.766 355.388 292.057" stroke="#2B2B2B" stroke-width="12.15"/>
<path d="M99.6414 373.932L92.5776 333.092C90.6097 321.714 97.6536 310.626 108.955 308.259C151.604 299.325 187.959 300.103 227.161 311.528C237.585 314.566 243.604 325.205 241.662 335.887L231.033 394.331C228.582 407.811 216.842 417.609 203.141 417.609H151.521C125.905 417.609 104.007 399.173 99.6414 373.932Z" stroke="#2B2B2B" stroke-width="12.15"/>
<path d="M414.709 373.932L421.773 333.092C423.74 321.714 416.697 310.626 405.395 308.259C362.746 299.325 326.392 300.103 287.189 311.528C276.765 314.566 270.746 325.205 272.688 335.887L283.317 394.331C285.768 407.811 297.509 417.609 311.209 417.609H362.829C388.445 417.609 410.343 399.173 414.709 373.932Z" stroke="#2B2B2B" stroke-width="12.15"/>
<path d="M259 25.3789C368.56 25.3789 457.798 112.387 461.386 221.074C418.669 192.134 367.134 175.23 311.65 175.229H206.349C150.865 175.23 99.3297 192.134 56.6121 221.074C60.201 112.387 149.439 25.3789 259 25.3789Z" fill="#2B2B2B"/>
<path d="M40.2998 211.139C40.2998 195.539 49.7472 181.396 64.3048 175.79C206.402 121.075 299.132 121.341 452.683 176.153C467.753 181.532 477.7 195.942 477.7 211.943V300.796C477.7 309.794 466.333 314.881 458.857 309.875C368.683 249.493 155.183 242.753 59.0054 309.634C51.6183 314.771 40.2998 309.794 40.2998 300.796V211.139Z" fill="#2B2B2B"/>
<path d="M104.087 165.104C162.418 145.212 196.547 139.609 260.012 139.791" stroke="white" stroke-width="6.075"/>
<path d="M63.5872 197.504V282.554" stroke="white" stroke-width="6.075"/>
<path d="M96.9998 181.305V211.68" stroke="white" stroke-width="6.075"/>
<path d="M449.35 242.055V272.43" stroke="white" stroke-width="6.075"/>
</svg>
